# AST/ASF file generated using VICON BodyLanguage
# -----------------------------------------------
:version 1.10
:name VICON
:units
  mass 1.0
  length 0.45
  angle deg
:documentation
   .ast/.asf automatically generated from VICON data using
   VICON BodyBuilder and BodyLanguage model FoxedUp or BRILLIANT.MOD
:root
   order TX TY TZ RX RY RZ
   axis XYZ
   position 0 0 0  
   orientation 0 0 0 
:bonedata
  begin
     id 1 
     name lhipjoint
     direction 0.610259 -0.730986 0.305356 
     length 2.50941 
     axis 0 0 0  XYZ
  end
  begin
     id 2 
     name lfemur
     direction 0.34202 -0.939693 0  
     length 7.48822  
     axis 0 0 20  XYZ
    dof rx ry rz
    limits (-160.0 20.0)
           (-70.0 70.0)
           (-60.0 70.0)
  end
  begin
     id 3 
     name ltibia
     direction 0.34202 -0.939693 0   
     length 7.60141   
     axis 0 0 20   XYZ
    dof rx
    limits (-10.0 170.0)
  end
  begin
     id 4 
     name lfoot
     direction 0.0673488 -0.185039 0.980421   
     length 2.04049   
     axis -90 7.62852e-016 20   XYZ
    dof rx rz
    limits (-45.0 90.0)
           (-70.0 20.0)
  end
  begin
     id 5 
     name ltoes
     direction 1.5356e-011 -4.21729e-011 1   
     length 1.02897   
     axis -90 7.62852e-016 20   XYZ
    dof rx
    limits (-90.0 20.0)
  end
  begin
     id 6 
     name rhipjoint
     direction -0.57612 -0.754205 0.315056   
     length 2.43216  
     axis 0 0 0  XYZ 
  end
  begin
     id 7 
     name rfemur
     direction -0.34202 -0.939693 0   
     length 7.42799   
     axis 0 0 -20   XYZ
    dof rx ry rz
    limits (-160.0 20.0)
           (-70.0 70.0)
           (-70.0 60.0)
  end
  begin
     id 8 
     name rtibia
     direction -0.34202 -0.939693 0   
     length 7.69484   
     axis 0 0 -20   XYZ
    dof rx
    limits (-10.0 170.0)
 end
 begin
     id 9 
     name rfoot
     direction -0.111837 -0.30727 0.945028   
     length 2.15769  
     axis -90 -7.62852e-016 -20   XYZ
    dof rx rz
    limits (-45.0 90.0)
           (-20.0 70.0)
  end
  begin
     id 10 
     name rtoes
     direction -1.53539e-011 -4.21878e-011 1   
     length 1.07391   
     axis -90 -7.62852e-016 -20   XYZ
    dof rx
    limits (-90.0 20.0)
  end
  begin
     id 11 
     name lowerback
     direction 0.00552624 0.990109 -0.140195   
     length 2.12403   
     axis 0 0 0   XYZ
    dof rx ry rz
    limits (-20.0 45.0)
           (-30.0 30.0)
           (-30.0 30.0)
  end
  begin
     id 12 
     name upperback
     direction 0.00361898 0.999976 -0.00584723   
     length 2.13232   
     axis 0 0 0   XYZ
    dof rx ry rz
    limits (-20.0 45.0)
           (-30.0 30.0)
           (-30.0 30.0)
  end
  begin
     id 13 
     name thorax
     direction -0.000331275 0.998253 0.0590847   
     length 2.17688   
     axis 0 0 0   XYZ
    dof rx ry rz
    limits (-20.0 45.0)
           (-30.0 30.0)
           (-30.0 30.0)
  end
  begin
     id 14 
     name lowerneck
     direction -0.0561561 0.979832 0.19177   
     length 1.64159   
     axis 0 0 0   XYZ
    dof rx ry rz
    limits (-20.0 45.0)
           (-30.0 30.0)
           (-30.0 30.0)
  end
  begin
     id 15 
     name upperneck
     direction 0.0827153 0.979385 -0.184293   
     length 1.68939   
     axis 0 0 0   XYZ
    dof rx ry rz
    limits (-20.0 45.0)
           (-30.0 30.0)
           (-30.0 30.0)
  end
  begin
     id 16
     name head
     direction 0.0278583 0.995936 -0.0856488  
     length 1.70207  
     axis 0 0 0   XYZ
    dof rx ry rz
    limits (-20.0 45.0)
           (-30.0 30.0)
           (-30.0 30.0)
  end
  begin
     id 17 
     name lclavicle
     direction 0.950993 0.301131 -0.0702275  
     length 3.41652  
     axis 0 0 0   XYZ
    dof ry rz
    limits (-20.0 10.0)
           (0.0 20.0)
  end
  begin
     id 18 
     name lhumerus
     direction 1 -4.48981e-011 -3.9662e-029   
     length 5.32955   
     axis 180 -30 -90   XYZ
    dof rx ry rz
    limits (-60.0 90.0)
           (-90.0 90.0)
           (-90.0 90.0)
  end
  begin
     id 19
     name lradius
     direction 1 -4.48925e-011 -9.0549e-027   
     length 3.69232   
     axis 180 -30 -90   XYZ
    dof rx
    limits (-10.0 170.0)
  end
  begin
     id 20
     name lwrist
     direction 1 -4.49007e-011 -1.49005e-026   
     length 1.84616   
     axis 9.0955e-015 90 90   XYZ
    dof ry
    limits (-180.0 0.0)
 end
  begin
     id 21 
     name lhand
     direction 1 -4.49016e-011 -2.98023e-026   
     length 0.536598   
     axis 1.90115e-014 90 90   XYZ
    dof rx rz
    limits (-90.0 90.0)
           (-45.0 45.0)
  end
  begin
     id 22 
     name lfingers
     direction 1 -4.48924e-011 -5.9578e-026   
     length 0.432619   
     axis 3.80223e-014 90 90   XYZ
    dof rx
    limits (0.0 90.0)
  end
  begin
     id 23
     name lthumb
     direction 0.707107 -6.34947e-011 0.707107   
     length 0.621157   
     axis -90 45 -3.84942e-014   XYZ
    dof rx rz
    limits (-45.0 45.0)
           (-45.0 45.0)
  end
  begin
     id 24 
     name rclavicle
     direction -0.955495 0.276497 -0.102848   
     length 3.36357  
     axis 0 0 0   XYZ 
    dof ry rz
    limits (-10.0 20.0)
           (-20.0 0.0)
  end
  begin
     id 25 
     name rhumerus
     direction -1 -4.48961e-011 3.30983e-027  
     length 5.23431   
     axis 180 30 90   XYZ
    dof rx ry rz
    limits (-90.0 60.0)
           (-90.0 90.0)
           (-90.0 90.0)
  end
  begin
     id 26 
     name rradius
     direction -1 -4.48965e-011 -6.63263e-027   
     length 3.55301   
     axis 180 30 90   XYZ
    dof rx
    limits (-10.0 170.0)
  end
  begin
     id 27 
     name rwrist
     direction -1 -4.48942e-011 -1.48958e-026   
     length 1.77651   
     axis 9.0955e-015 -90 -90   XYZ
    dof ry
    limits (-180.0 0.0)
  end
  begin
     id 28
     name rhand
     direction -1 -4.48977e-011 -2.97966e-026   
     length 0.772522   
     axis 1.90115e-014 -90 -90   XYZ
    dof rx rz
    limits (-90.0 90.0)
           (-45.0 45.0)
  end
  begin
     id 29
     name rfingers
     direction -1 -4.49135e-011 -5.96389e-026   
     length 0.622827   
     axis 3.80223e-014 -90 -90   XYZ
    dof rx
    limits (0.0 90.0)
  end
  begin
     id 30
     name rthumb
     direction -0.707107 -6.34969e-011 0.707107   
     length 0.894259   
     axis -90 -45 3.84942e-014   XYZ
    dof rx rz
    limits (-45.0 45.0)
           (-45.0 45.0)
  end
:hierarchy
  begin
    root lhipjoint rhipjoint lowerback
    lhipjoint lfemur
    lfemur ltibia
    ltibia lfoot
    lfoot ltoes
    rhipjoint rfemur
    rfemur rtibia
    rtibia rfoot
    rfoot rtoes
    lowerback upperback
    upperback thorax
    thorax lowerneck lclavicle rclavicle
    lowerneck upperneck
    upperneck head
    lclavicle lhumerus
    lhumerus lradius
    lradius lwrist
    lwrist lhand lthumb
    lhand lfingers
    rclavicle rhumerus
    rhumerus rradius
    rradius rwrist
    rwrist rhand rthumb
    rhand rfingers
  end

#!OML:ASF F:\VICON\USERDATA\INSTALL\rory3\rory3.ASF
:FULLY-SPECIFIED
:DEGREES
131
root -1.24245 18.1684 -1.33027 3.08304 54.8304 2.82398
lowerback 10.4411 -0.562932 -1.04693
upperback 0.73351 -0.757214 1.68911
thorax -5.05535 -0.32251 2.46501
lowerneck -15.024 -6.4612 -12.5765
upperneck 37.2431 -7.2903 6.10474
head 16.7704 -3.73442 3.63063
rclavicle -4.06515e-014 -1.59028e-014
rhumerus -38.8006 -21.6462 -71.2385
rradius 21.7115
rwrist 14.1065
rhand -12.4934 7.6753
rfingers 7.12502
rthumb 13.5814 -21.8617
lclavicle -4.06515e-014 -1.59028e-014
lhumerus -34.9191 9.66237 82.3872
lradius 27.6952
lwrist -8.23351
lhand -19.2243 27.1616
lfingers 7.12502
lthumb 7.08863 57.0229
rfemur -17.7024 -7.11374 22.7604
rtibia 22.0049
rfoot -2.7209 -5.53392
rtoes 12.9214
lfemur 7.4478 -2.5788 -21.7937
ltibia 30.2804
lfoot 16.1363 -11.3602
ltoes -0.147583
132
root -1.1603 18.181 -1.23592 2.48863 54.9949 2.2082
lowerback 10.6316 -0.553294 -0.622349
upperback 0.735405 -0.688837 1.75612
thorax -5.16756 -0.295702 2.28855
lowerneck -15.0176 -6.4758 -12.5431
upperneck 37.3068 -7.30634 6.07018
head 16.8013 -3.73985 3.60892
rclavicle 8.98507e-014 0
rhumerus -38.8233 -21.2694 -71.4589
rradius 21.7548
rwrist 13.736
rhand -12.7004 7.55847
rfingers 7.12502
rthumb 13.3819 -21.9918
lclavicle 8.98507e-014 0
lhumerus -35.0075 9.19827 82.553
lradius 27.5573
lwrist -8.696
lhand -18.8896 27.3383
lfingers 7.12502
lthumb 7.41168 57.1885
rfemur -16.9299 -7.15411 23.198
rtibia 21.6143
rfoot -2.91584 -5.72942
rtoes 12.9911
lfemur 6.08395 -2.64573 -21.1733
ltibia 32.7776
lfoot 17.5504 -12.5322
ltoes 1.21221
133
root -1.07848 18.195 -1.14407 1.93609 55.1198 1.63561
lowerback 10.721 -0.546392 -0.361095
upperback 0.836261 -0.638371 1.89946
thorax -5.11529 -0.27493 2.28371
lowerneck -15.1667 -6.53243 -12.5996
upperneck 37.3549 -7.33707 6.02748
head 16.8711 -3.76406 3.59219
rclavicle -3.57812e-015 2.06736e-014
rhumerus -38.6723 -20.9646 -71.614
rradius 21.9051
rwrist 13.5774
rhand -12.9975 7.66868
rfingers 7.12502
rthumb 13.0956 -21.9002
lclavicle -3.57812e-015 2.06736e-014
lhumerus -35.1157 8.54633 82.9523
lradius 27.7406
lwrist -8.6312
lhand -17.6117 26.8631
lfingers 7.12502
lthumb 8.64509 56.6661
rfemur -16.1676 -7.22639 23.6268
rtibia 21.1987
rfoot -3.02784 -5.78835
rtoes 12.22
lfemur 4.72277 -2.77035 -20.6191
ltibia 35.1897
lfoot 18.7001 -13.594
ltoes 4.01618
134
root -0.997237 18.2086 -1.0572 1.33114 55.2949 0.94686
lowerback 10.8227 -0.60339 0.0107663
upperback 0.84367 -0.656641 2.06968
thorax -5.16602 -0.288938 2.25636
lowerneck -15.1387 -6.5629 -12.7819
upperneck 37.3858 -7.32433 6.03019
head 16.8927 -3.78459 3.62928
rclavicle -5.28767e-014 6.36111e-015
rhumerus -38.5809 -20.283 -71.8409
rradius 22.1208
rwrist 13.2517
rhand -13.0062 7.78079
rfingers 7.12502
rthumb 13.0872 -21.7886
lclavicle -5.28767e-014 6.36111e-015
lhumerus -35.4264 7.77261 83.4126
lradius 28.0884
lwrist -8.25709
lhand -16.6877 26.5381
lfingers 7.12502
lthumb 9.5367 56.3023
rfemur -15.4753 -7.47559 24.1267
rtibia 20.7832
rfoot -3.20276 -5.74253
rtoes 11.6239
lfemur 3.34822 -2.94914 -19.9834
ltibia 37.5065
lfoot 19.6033 -14.2844
ltoes 7.85232
135
root -0.919378 18.2158 -0.972376 0.536001 55.4873 0.121557
lowerback 11.0781 -0.660395 0.533724
upperback 0.796934 -0.654269 2.18881
thorax -5.36282 -0.295962 2.09083
lowerneck -14.9073 -6.55587 -12.789
upperneck 37.3403 -7.3131 5.97307
head 16.8065 -3.79006 3.60925
rclavicle -1.33186e-014 2.3059e-014
rhumerus -38.6565 -19.7188 -72.0397
rradius 22.3956
rwrist 13.0282
rhand -12.6936 7.67097
rfingers 7.12502
rthumb 13.3886 -21.8788
lclavicle -1.33186e-014 2.3059e-014
lhumerus -35.7563 7.53066 83.377
lradius 28.1044
lwrist -9.01603
lhand -16.3237 25.4734
lfingers 7.12502
lthumb 9.88782 55.2212
rfemur -14.7071 -7.68838 24.6771
rtibia 20.3628
rfoot -3.4053 -5.76634
rtoes 11.2167
lfemur 2.06847 -3.1321 -19.2842
ltibia 39.7342
lfoot 19.8857 -14.8148
ltoes 9.94167
136
root -0.842774 18.2215 -0.886397 -0.236474 55.577 -0.630063
lowerback 11.3444 -0.677538 0.982892
upperback 0.850863 -0.607645 2.2739
thorax -5.46055 -0.280867 1.92314
lowerneck -14.9375 -6.54642 -12.7392
upperneck 37.316 -7.3113 5.9779
head 16.7974 -3.78051 3.60187
rclavicle -2.10712e-014 2.62396e-014
rhumerus -38.5674 -19.4975 -72.2208
rradius 22.5953
rwrist 13.0775
rhand -12.5332 7.56302
rfingers 7.12502
rthumb 13.5431 -21.9766
lclavicle -2.10712e-014 2.62396e-014
lhumerus -35.8532 6.5233 83.9187
lradius 28.5538
lwrist -8.05175
lhand -15.9269 26.2258
lfingers 7.12502
lthumb 10.2706 55.955
rfemur -13.8764 -7.62226 25.1621
rtibia 19.9163
rfoot -3.61525 -5.95127
rtoes 10.9962
lfemur 0.860961 -3.21377 -18.6314
ltibia 41.866
lfoot 19.4099 -15.2936
ltoes 9.83171
137
root -0.765497 18.2262 -0.801216 -0.895941 55.5677 -1.25157
lowerback 11.54 -0.634094 1.37278
upperback 0.940328 -0.491526 2.31466
thorax -5.48186 -0.231157 1.72924
lowerneck -15.004 -6.54783 -12.7051
upperneck 37.3004 -7.34635 6.06031
head 16.8121 -3.77733 3.62525
rclavicle 8.59744e-014 -7.15625e-015
rhumerus -38.3939 -19.2173 -72.5215
rradius 22.7853
rwrist 12.8374
rhand -12.429 7.49772
rfingers 7.12502
rthumb 13.6436 -22.0351
lclavicle 8.59744e-014 -7.15625e-015
lhumerus -35.7649 6.16557 84.0215
lradius 28.5669
lwrist -8.47191
lhand -14.6695 25.1436
lfingers 7.12502
lthumb 11.4835 54.809
rfemur -13.0578 -7.5989 25.5777
rtibia 19.4688
rfoot -3.81855 -5.98702
rtoes 10.7782
lfemur -0.285969 -3.19698 -18.0587
ltibia 43.8795
lfoot 18.2373 -15.5679
ltoes 7.67567
138
root -0.687438 18.2286 -0.71664 -1.66066 55.5151 -1.96639
lowerback 11.7485 -0.528704 1.8356
upperback 0.989383 -0.280903 2.35613
thorax -5.55314 -0.136815 1.47985
lowerneck -14.9174 -6.6205 -12.7216
upperneck 37.35 -7.49189 6.14899
head 16.844 -3.8271 3.64392
rclavicle 4.95968e-014 -2.22639e-014
rhumerus -38.3073 -18.8854 -72.768
rradius 22.9627
rwrist 12.4173
rhand -12.3715 7.45568
rfingers 7.12502
rthumb 13.699 -22.0734
lclavicle 4.95968e-014 -2.22639e-014
lhumerus -35.7272 6.28168 83.6849
lradius 28.2966
lwrist -10.21
lhand -13.6148 23.2459
lfingers 7.12502
lthumb 12.5005 52.852
rfemur -12.2309 -7.63686 26.0594
rtibia 19.0622
rfoot -4.04586 -5.94803
rtoes 10.5008
lfemur -1.35873 -3.13624 -17.4283
ltibia 45.7513
lfoot 16.8639 -15.3728
ltoes 5.05226
139
root -0.612423 18.2297 -0.633964 -2.30833 55.4287 -2.59577
lowerback 11.9361 -0.443566 2.17594
upperback 1.01319 -0.110732 2.41737
thorax -5.63568 -0.0597566 1.32614
lowerneck -14.7946 -6.6824 -12.7126
upperneck 37.3738 -7.60329 6.1567
head 16.8421 -3.87087 3.62728
rclavicle 2.64384e-014 -2.46493e-014
rhumerus -38.1151 -18.3523 -73.0534
rradius 23.0712
rwrist 12.004
rhand -12.5461 7.57948
rfingers 7.12502
rthumb 13.5307 -21.9609
lclavicle 2.64384e-014 -2.46493e-014
lhumerus -35.873 5.08916 84.2717
lradius 28.8108
lwrist -8.84963
lhand -14.4894 24.5974
lfingers 7.12502
lthumb 11.6572 54.2531
rfemur -11.4903 -7.51907 26.4925
rtibia 18.7303
rfoot -4.31473 -6.04471
rtoes 10.3243
lfemur -2.47171 -3.04697 -16.8393
ltibia 47.4597
lfoot 15.6125 -14.8963
ltoes 3.43259
140
root -0.538391 18.2284 -0.552315 -2.62328 55.3217 -2.87359
lowerback 12.0547 -0.382262 2.2372
upperback 1.03171 -0.0130728 2.46362
thorax -5.68318 -0.0123425 1.32494
lowerneck -14.6032 -6.66171 -12.7427
upperneck 37.3065 -7.59023 6.18028
head 16.7597 -3.86805 3.64716
rclavicle -7.82218e-014 -3.18055e-015
rhumerus -37.8128 -17.7679 -73.318
rradius 23.1269
rwrist 11.6368
rhand -12.651 7.81381
rfingers 7.12502
rthumb 13.4296 -21.7333
lclavicle -7.82218e-014 -3.18055e-015
lhumerus -35.9793 5.03713 84.1669
lradius 28.9163
lwrist -9.25716
lhand -13.9519 23.4182
lfingers 7.12502
lthumb 12.1754 53.0439
rfemur -10.837 -7.42599 26.7227
rtibia 18.4722
rfoot -4.58689 -6.10947
rtoes 9.9431
lfemur -3.57733 -2.95636 -16.4992
ltibia 48.9711
lfoot 14.1275 -14.4241
ltoes 1.94421
141
root -0.46075 18.2267 -0.469126 -2.79874 55.1553 -2.98085
lowerback 12.0644 -0.258659 2.23562
upperback 1.11726 0.150605 2.48297
thorax -5.59943 0.0693981 1.31795
lowerneck -14.4473 -6.66977 -12.8234
upperneck 37.207 -7.61255 6.23766
head 16.68 -3.88159 3.68221
rclavicle 6.0033e-014 3.4191e-014
rhumerus -37.4589 -17.7066 -73.3241
rradius 23.1601
rwrist 11.5789
rhand -12.4493 8.00857
rfingers 7.12502
rthumb 13.624 -21.5256
lclavicle 6.0033e-014 3.4191e-014
lhumerus -35.974 4.88122 84.2162
lradius 29.0962
lwrist -9.24186
lhand -13.9455 23.5563
lfingers 7.12502
lthumb 12.1816 53.1816
rfemur -10.259 -7.29601 26.8406
rtibia 18.3638
rfoot -4.9193 -6.1529
rtoes 9.4916
lfemur -4.60435 -2.78811 -16.2878
ltibia 50.2724
lfoot 12.5138 -13.848
ltoes 0.580029
142
root -0.381212 18.2256 -0.384642 -2.97693 54.9367 -3.09903
lowerback 12.0334 -0.09114 2.24911
upperback 1.2062 0.371187 2.48247
thorax -5.48967 0.178575 1.27217
lowerneck -14.3961 -6.71473 -12.8154
upperneck 37.2736 -7.68594 6.24152
head 16.7133 -3.90951 3.67221
rclavicle -1.63003e-014 1.66979e-014
rhumerus -37.161 -17.7952 -73.295
rradius 23.2198
rwrist 11.655
rhand -12.2755 8.00281
rfingers 7.12502
rthumb 13.7915 -21.52
lclavicle -1.63003e-014 1.66979e-014
lhumerus -35.8642 4.76953 84.368
lradius 29.2628
lwrist -8.89685
lhand -14.6028 24.8833
lfingers 7.12502
lthumb 11.5479 54.5452
rfemur -9.7115 -7.10868 26.9501
rtibia 18.2708
rfoot -5.24273 -6.15255
rtoes 9.30727
lfemur -5.6195 -2.56686 -16.0792
ltibia 51.4355
lfoot 11.1123 -13.0391
ltoes 0.0655033
143
root -0.305628 18.2242 -0.30445 -2.91103 54.8254 -2.88277
lowerback 12.0783 0.0761754 1.99176
upperback 1.28229 0.558063 2.47617
thorax -5.43776 0.276645 1.37938
lowerneck -14.3448 -6.77656 -12.7304
upperneck 37.3849 -7.75824 6.11485
head 16.7579 -3.94299 3.5912
rclavicle -2.98177e-014 -4.29375e-014
rhumerus -36.8083 -17.6513 -73.3461
rradius 23.2264
rwrist 11.6718
rhand -12.649 7.91773
rfingers 7.12502
rthumb 13.4315 -21.6292
lclavicle -2.98177e-014 -4.29375e-014
lhumerus -35.7157 5.34435 84.0902
lradius 29.1246
lwrist -9.80684
lhand -14.0773 23.9441
lfingers 7.12502
lthumb 12.0546 53.5769
rfemur -9.16944 -6.92515 26.8256
rtibia 18.2221
rfoot -5.62133 -6.25466
rtoes 10.1107
lfemur -6.60802 -2.42743 -16.1021
ltibia 52.4147
lfoot 9.77006 -12.2894
ltoes -1.1534
144
root -0.236594 18.2239 -0.229582 -3.40443 54.7858 -3.60875
lowerback 11.9331 0.135418 2.14286
upperback 1.32503 0.669237 2.75105
thorax -5.31523 0.33316 1.56436
lowerneck -14.292 -6.79543 -12.8239
upperneck 37.4312 -7.69578 5.95932
head 16.7602 -3.95049 3.55165
rclavicle -1.12015e-013 2.70347e-014
rhumerus -36.3304 -17.3277 -73.3172
rradius 23.2764
rwrist 11.8136
rhand -13.3306 7.92407
rfingers 7.12502
rthumb 12.7745 -21.6651
lclavicle -1.12015e-013 2.70347e-014
lhumerus -35.7454 5.0428 84.6531
lradius 29.7403
lwrist -8.34662
lhand -14.7443 25.5115
lfingers 7.12502
lthumb 11.4114 55.181
rfemur -8.89133 -6.69602 27.3589
rtibia 18.1823
rfoot -6.063 -6.61373
rtoes 11.4756
lfemur -7.91873 -2.29836 -15.467
ltibia 53.3057
lfoot 8.5904 -11.6666
ltoes -2.47151
145
root -0.157097 18.2259 -0.146402 -3.41791 54.676 -3.5657
lowerback 11.8134 0.199911 1.92095
upperback 1.40751 0.724178 2.83521
thorax -5.16634 0.366848 1.76865
lowerneck -14.2462 -6.78033 -12.934
upperneck 37.5187 -7.61791 5.90827
head 16.7906 -3.94108 3.56716
rclavicle -1.21457e-013 3.4191e-014
rhumerus -36.0055 -17.2322 -73.2867
rradius 23.4507
rwrist 12.1944
rhand -13.7899 7.93124
rfingers 7.12502
rthumb 12.3317 -21.6851
lclavicle -1.21457e-013 3.4191e-014
lhumerus -35.8684 5.10943 84.8121
lradius 30.1943
lwrist -7.60331
lhand -15.7149 25.9637
lfingers 7.12502
lthumb 10.4752 55.6827
rfemur -8.42879 -6.62501 27.3975
rtibia 18.201
rfoot -6.50821 -6.78958
rtoes 11.7541
lfemur -8.8914 -2.19605 -15.368
ltibia 53.9816
lfoot 7.69391 -10.7866
ltoes -1.29683
